<svg xmlns="http://www.w3.org/2000/svg" width="1536" height="1024" viewBox="0 0 1536 1024" fill="none">
  <defs>
    <linearGradient id="bg" x1="100" y1="50" x2="1450" y2="1000" gradientUnits="userSpaceOnUse"><stop stop-color="#0A1423"/><stop offset="1" stop-color="#020712"/></linearGradient>
    <linearGradient id="board" x1="830" y1="480" x2="1370" y2="840" gradientUnits="userSpaceOnUse"><stop stop-color="#173358"/><stop offset="1" stop-color="#091527"/></linearGradient>
    <radialGradient id="glow"><stop stop-color="#216CFF" stop-opacity=".65"/><stop offset="1" stop-color="#216CFF" stop-opacity="0"/></radialGradient>
    <filter id="blur"><feGaussianBlur stdDeviation="25"/></filter>
    <filter id="shadow"><feDropShadow dx="0" dy="25" stdDeviation="20" flood-color="#000" flood-opacity=".5"/></filter>
    <pattern id="grid" width="70" height="70" patternUnits="userSpaceOnUse"><path d="M70 0H0V70" stroke="#2867C7" stroke-opacity=".08"/></pattern>
  </defs>
  <rect width="1536" height="1024" fill="url(#bg)"/><rect width="1536" height="1024" fill="url(#grid)"/>
  <ellipse cx="1110" cy="670" rx="500" ry="350" fill="url(#glow)" filter="url(#blur)" opacity=".45"/>
  <path d="M550 880 1450 520l86 330-880 174-106-144Z" fill="#050B14"/>
  <g filter="url(#shadow)" transform="rotate(-8 1110 690)">
    <rect x="730" y="460" width="690" height="390" rx="24" fill="url(#board)" stroke="#3474D8" stroke-opacity=".55" stroke-width="3"/>
    <path d="M780 520h180v95H780zM1180 500h180v110h-180zM805 700h220v90H805z" fill="#07111F" stroke="#3769A5" stroke-width="2"/>
    <rect x="1000" y="545" width="160" height="150" rx="12" fill="#111E31" stroke="#80A8E3" stroke-width="3"/><rect x="1026" y="572" width="108" height="96" rx="5" fill="#192B46" stroke="#5289D8"/>
    <g fill="#A9BDDA"><circle cx="785" cy="650" r="11"/><circle cx="825" cy="650" r="11"/><circle cx="865" cy="650" r="11"/><circle cx="905" cy="650" r="11"/><circle cx="945" cy="650" r="11"/><circle cx="1240" cy="670" r="12"/><circle cx="1285" cy="670" r="12"/><circle cx="1330" cy="670" r="12"/></g>
    <g stroke="#2D6BC8" stroke-width="4" opacity=".75"><path d="M960 567h40M960 600h40M960 633h40M1160 575h70M1160 620h140M1025 695v55M1080 695v95M1135 695v55"/><path d="M780 750h-25v-90h-25M1360 565h35v150h-35"/></g>
    <g fill="#56B8FF"><circle cx="751" cy="521" r="5"/><circle cx="1400" cy="520" r="5"/><circle cx="748" cy="820" r="5"/><circle cx="1398" cy="810" r="5"/></g>
  </g>
  <g filter="url(#shadow)"><path d="M1140 0h270v280l-40 105h-190l-40-105V0Z" fill="#172234"/><rect x="1168" y="260" width="215" height="120" rx="20" fill="#050A11" stroke="#53647C" stroke-width="5"/><rect x="1204" y="360" width="142" height="52" rx="10" fill="#0B1522" stroke="#4D8CE9" stroke-width="5"/><path d="M1230 412v70h90v-70" fill="#050A11" stroke="#293A53" stroke-width="5"/><ellipse cx="1275" cy="482" rx="82" ry="18" fill="#58A1FF" opacity=".7" filter="url(#blur)"/><ellipse cx="1275" cy="476" rx="70" ry="12" fill="#B9DDFF"/></g>
  <path d="M1536 432c-150 10-250 75-315 182" stroke="#D4DEEA" stroke-width="28" stroke-linecap="round"/><path d="m1214 609-28 72" stroke="#9EADC1" stroke-width="18" stroke-linecap="round"/><circle cx="1185" cy="684" r="14" fill="#E4EEF8"/>
  <g opacity=".6"><rect x="1360" y="90" width="130" height="140" rx="12" fill="#0C1A2E" stroke="#2867C7"/><path d="M1380 185c25-65 47 35 75-48" stroke="#41A7FF" stroke-width="4"/><path d="M1380 205h85" stroke="#2A4E7D"/></g>
</svg>
